<svg id="Layer_1" data-name="Layer 1" xmlns="http://www.w3.org/2000/svg" viewBox="0 0 128 128"><defs><style>.cls-1{fill:#708eba;}.cls-2{fill:#4a6199;}.cls-10,.cls-12,.cls-15,.cls-16,.cls-20,.cls-21,.cls-3,.cls-6,.cls-9{fill:none;}.cls-12,.cls-13,.cls-15,.cls-16,.cls-18,.cls-20,.cls-21,.cls-3,.cls-6{stroke:#333;}.cls-10,.cls-12,.cls-13,.cls-15,.cls-16,.cls-18,.cls-21,.cls-3,.cls-6{stroke-linejoin:round;}.cls-13,.cls-15,.cls-18,.cls-20,.cls-3{stroke-width:3px;}.cls-4{fill:#7cbdd6;}.cls-5{fill:#61a6c9;}.cls-6{stroke-width:4px;}.cls-13,.cls-18,.cls-7{fill:#6ad3b8;}.cls-8{fill:#65bca6;}.cls-9{stroke:#51a58d;}.cls-20,.cls-9{stroke-miterlimit:10;}.cls-10{stroke:#5d6268;}.cls-11{fill:#81e2c7;}.cls-12,.cls-13,.cls-15{stroke-linecap:round;}.cls-12,.cls-16{stroke-width:2px;}.cls-14{fill:#86c7e0;}.cls-17{fill:#89a5c6;}.cls-19{fill:#6d9dc9;}</style></defs><title>robot-01</title><path class="cls-1" d="M40,74H88a16,16,0,0,1,16,16v10a0,0,0,0,1,0,0H24a0,0,0,0,1,0,0V90A16,16,0,0,1,40,74Z"/><path class="cls-2" d="M92,78H40A12,12,0,0,0,28,90v10h76V90a15.94,15.94,0,0,0-2.87-9.13A15.94,15.94,0,0,0,92,78Z"/><path class="cls-3" d="M40,74H88a16,16,0,0,1,16,16v10a0,0,0,0,1,0,0H24a0,0,0,0,1,0,0V90A16,16,0,0,1,40,74Z"/><path class="cls-4" d="M115.22,103.48a12.39,12.39,0,0,0-9.13-9.59C94,92,82,90,64,90s-30,2-41.95,3.91c-4.73.74-8.19,4.9-9.13,9.59L12,108l.21.13C28,115.09,45.63,118,64,118s36.11-3,51.89-9.91L116,108Z"/><path class="cls-5" d="M106.09,99.48,96.55,97.1a133.92,133.92,0,0,0-32.39-4H64a134,134,0,0,0-32.39,4l-9.53,2.38a13.28,13.28,0,0,0-9.1,9c15.6,6.77,33,9.56,51.05,9.56s35.59-2.85,51.18-9.61A13.2,13.2,0,0,0,106.09,99.48Z"/><path class="cls-6" d="M115.22,103.48c-.94-4.69-4.41-8.85-9.13-9.59C94,92,82.41,90,64,90s-30,2-41.95,3.91c-4.73.74-8.19,4.9-9.13,9.59L12,108c.29.18,22.25,10,52,10,29.26,0,51.65-9.71,52-10Z"/><path class="cls-7" d="M50,70V84.11A13.94,13.94,0,0,0,64,98h0A13.94,13.94,0,0,0,78,84.11V70Z"/><path class="cls-8" d="M50,74.2,71.72,95.68A13.83,13.83,0,0,0,78,84.11V70H50Z"/><path class="cls-9" d="M50,80s4,6,14,6,14-6,14-6"/><path class="cls-9" d="M50,84s4,6,14,6,14-6,14-6"/><path class="cls-9" d="M50,88s4,6,14,6,14-6,14-6"/><path class="cls-10" d="M76.91,77.44C73.34,81,54.66,81,51.09,77.44"/><path class="cls-6" d="M50,70V84.11A13.94,13.94,0,0,0,64,98h0A13.94,13.94,0,0,0,78,84.11V70Z"/><circle class="cls-5" cx="64" cy="108" r="10"/><path class="cls-4" d="M56.72,110.11A10.68,10.68,0,0,1,67.4,99.43a10.54,10.54,0,0,1,4.76,1.13A10.67,10.67,0,1,0,59.24,117,10.63,10.63,0,0,1,56.72,110.11Z"/><circle class="cls-11" cx="64" cy="108" r="4"/><path class="cls-7" d="M62,110a3.9,3.9,0,0,0,.36,1.64A3.9,3.9,0,0,0,64,112a4,4,0,0,0,4-4,3.9,3.9,0,0,0-.36-1.64A3.9,3.9,0,0,0,66,106,4,4,0,0,0,62,110Z"/><circle class="cls-12" cx="64" cy="108" r="4"/><circle class="cls-6" cx="64" cy="108" r="10"/><path class="cls-5" d="M64,17.85c-17,0-22.69,9-22.58,20.75a42.62,42.62,0,0,0,.22,4.55l2.09,15.63c.2,11.73,7.64,16.1,9.47,18.56,3.3,4.48,8.18,4.58,10.8,4.56s7.5-.08,10.8-4.56c1.83-2.46,9.27-6.83,9.47-18.56l2.09-15.63a42.62,42.62,0,0,0,.22-4.55C86.69,26.87,81,17.85,64,17.85Z"/><path class="cls-4" d="M48.18,62l-2.1-15.64a44.63,44.63,0,0,1-.21-4.55c-.14-14.22,5.64-20.74,22.58-20.74a31.23,31.23,0,0,1,13.84,3.36C78.8,20.62,73,17.85,64,17.85c-17,0-22.69,9-22.58,20.75a42.62,42.62,0,0,0,.22,4.55l2.09,15.63c.2,11.73,7.64,16.1,9.47,18.56a8.46,8.46,0,0,0,4.4,3.19C55.72,78.06,48.38,73.67,48.18,62Z"/><path class="cls-1" d="M43.93,55.93l0,5.66c1.22,9.63,7.58,13.5,9.25,15.75a9,9,0,0,0,.8.91V66A9.81,9.81,0,0,0,43.93,55.93Z"/><path class="cls-5" d="M44.2,61.44c1.22,9.64,7.58,13.51,9.25,15.77.18.24.36.46.55.68V71.5A10.1,10.1,0,0,0,44.2,61.44Z"/><path class="cls-6" d="M64,17.85c-17,0-22.69,9-22.58,20.75a42.62,42.62,0,0,0,.22,4.55l2.09,15.63c.2,11.73,7.64,16.1,9.47,18.56,3.3,4.48,8.18,4.58,10.8,4.56s7.5-.08,10.8-4.56c1.83-2.46,9.27-6.83,9.47-18.56l2.09-15.63a42.62,42.62,0,0,0,.22-4.55C86.69,26.87,81,17.85,64,17.85Z"/><path class="cls-13" d="M74,48a3,3,0,1,0,3,3,3.08,3.08,0,0,0-3-3"/><path class="cls-13" d="M54,48a3,3,0,1,0,3,3,3.08,3.08,0,0,0-3-3"/><path class="cls-5" d="M64,14a29.63,29.63,0,0,0-10,2V28a10,10,0,0,0,20,0V16A29.63,29.63,0,0,0,64,14Z"/><path class="cls-14" d="M54,16V28A10,10,0,0,0,64,38h0a3.68,3.68,0,0,0-2.47-3.43A6.88,6.88,0,0,1,57,28V18.17A22.69,22.69,0,0,1,64,17a26.66,26.66,0,0,1,9,1.87L74,16a29.63,29.63,0,0,0-10-2A29.63,29.63,0,0,0,54,16Z"/><path class="cls-15" d="M64,14a29.63,29.63,0,0,0-10,2V28a10,10,0,0,0,20,0V16A29.63,29.63,0,0,0,64,14Z"/><line class="cls-12" x1="64" y1="55.97" x2="64" y2="38.72"/><path class="cls-16" d="M44,56v6c1.34,9.36,7.55,13.16,9.2,15.38a9,9,0,0,0,.8.91V66A10,10,0,0,0,44,56Z"/><path class="cls-1" d="M84.07,55.93l0,5.66c-1.22,9.63-7.58,13.5-9.25,15.75a9,9,0,0,1-.8.91V66A9.81,9.81,0,0,1,84.07,55.93Z"/><path class="cls-5" d="M83.8,61.44C82.58,71.08,76.22,75,74.55,77.21c-.18.24-.36.46-.55.68V71.5A10.1,10.1,0,0,1,83.8,61.44Z"/><path class="cls-16" d="M84,56v6c-1.34,9.36-7.55,13.16-9.2,15.38a9,9,0,0,1-.8.91V66A10,10,0,0,1,84,56Z"/><path class="cls-1" d="M41.14,38.72,34,46l0,11.83,9.56,4.31S44.33,45.47,41.14,38.72Z"/><polygon class="cls-17" points="38 41.52 34 46 34.02 57.84 38 59.63 38 41.52"/><path class="cls-6" d="M41.14,38.72,34,46l0,11.83,9.56,4.31S44.33,45.47,41.14,38.72Z"/><line class="cls-16" x1="38" y1="52" x2="42" y2="52"/><path class="cls-1" d="M86.86,38.72,94,46l0,11.83-9.56,4.31S83.67,45.47,86.86,38.72Z"/><polygon class="cls-17" points="90 41.52 94 46 93.98 57.84 90 59.63 90 41.52"/><path class="cls-6" d="M86.86,38.72,94,46l0,11.83-9.56,4.31S83.67,45.47,86.86,38.72Z"/><line class="cls-3" x1="100" y1="52" x2="94" y2="52"/><circle class="cls-18" cx="103" cy="52" r="3"/><line class="cls-3" x1="28" y1="52" x2="34" y2="52"/><circle class="cls-18" cx="25" cy="52" r="3"/><line class="cls-16" x1="90" y1="52" x2="86" y2="52"/><line class="cls-16" x1="58" y1="66" x2="58" y2="70"/><line class="cls-16" x1="62" y1="66" x2="62" y2="70"/><line class="cls-16" x1="66" y1="66" x2="66" y2="70"/><line class="cls-16" x1="70" y1="66" x2="70" y2="70"/><rect class="cls-5" x="60" y="9" width="8" height="23" rx="4" ry="4"/><path class="cls-19" d="M65,12a2,2,0,0,1,2,2V28a4,4,0,0,1-4,4h0V14a2,2,0,0,1,2-2"/><rect class="cls-20" x="60" y="9" width="8" height="23" rx="4" ry="4"/><path class="cls-5" d="M50,96H36V90a6,6,0,0,1,6-6h8Z"/><path class="cls-4" d="M42,84a6,6,0,0,0-6,6v3.85A6.19,6.19,0,0,1,42,88h8V84Z"/><path class="cls-6" d="M36,96V90a6,6,0,0,1,6-6h8V96"/><line class="cls-21" x1="40" y1="90" x2="46" y2="90"/><line class="cls-21" x1="40" y1="92" x2="46" y2="92"/><line class="cls-21" x1="40" y1="94" x2="46" y2="94"/><path class="cls-5" d="M78,96H92V90a6,6,0,0,0-6-6H78Z"/><path class="cls-4" d="M86,84a6,6,0,0,1,6,6v3.85A6.19,6.19,0,0,0,86,88H78V84Z"/><path class="cls-6" d="M92,96V90a6,6,0,0,0-6-6H78V96"/><line class="cls-21" x1="88" y1="90" x2="82" y2="90"/><line class="cls-21" x1="88" y1="92" x2="82" y2="92"/><line class="cls-21" x1="88" y1="94" x2="82" y2="94"/><path class="cls-12" d="M30,92l4,8.45a14.26,14.26,0,0,0,9.94,7.66l2.22.46a10.38,10.38,0,0,1,6.48,4.31L56,118"/><path class="cls-12" d="M98,92l-4,8.45a14.26,14.26,0,0,1-9.94,7.66l-2.22.46a10.38,10.38,0,0,0-6.48,4.31L72,118"/></svg>