<?xml version="1.0" encoding="utf-8"?>
<!-- Generator: Adobe Illustrator 18.1.1, SVG Export Plug-In . SVG Version: 6.00 Build 0)  -->
<svg version="1.1" id="Layer_1" xmlns="http://www.w3.org/2000/svg" xmlns:xlink="http://www.w3.org/1999/xlink" x="0px" y="0px"
	 viewBox="183.9 388.3 458.6 432.1" enable-background="new 183.9 388.3 458.6 432.1" xml:space="preserve">
<path fill="#FFFFFF" d="M416.1,814.6c-1.3,0-2.5,0-3.4-0.2c-0.7,0.2-1.5,0.2-2.3,0.2c-26.7,0-44.5-12.6-60.4-23.7
	c-11.3-8-21.9-15.6-34.4-17.7c-6.1-1.1-12.3-1.5-18-1.5c-10.6,0-19,1.6-25,2.8c-3.8,0.7-7,1.3-9.5,1.3c-2.6,0-5.9-0.7-7.2-5.1
	c-1.1-3.6-1.8-7-2.5-10.3c-1.8-8.3-3.3-13.4-6.4-13.9c-33.4-5.1-53.4-12.8-57.3-21.9c-0.3-1-0.7-2-0.7-2.8c-0.2-2.8,1.8-5.1,4.6-5.6
	c26.5-4.4,50.3-18.5,70.4-41.7c15.6-18,23.2-35.4,23.9-37.3c0-0.2,0.2-0.2,0.2-0.2c3.8-7.9,4.6-14.6,2.3-20.1
	c-4.3-10.3-18.5-14.7-28.2-17.7c-2.5-0.7-4.6-1.5-6.4-2.1c-8.3-3.3-22.1-10.3-20.3-20c1.3-7,10.6-12,18.2-12c2.1,0,3.9,0.3,5.4,1.1
	c8.5,3.9,16.2,5.9,22.8,5.9c8.2,0,12.1-3.1,13.1-4.1c-0.2-4.4-0.5-9-0.8-13.3l0,0c-2-30.6-4.3-68.6,5.4-90.4
	c29.1-65.2,90.9-70.4,109.2-70.4c0.5,0,8-0.2,8-0.2c0.3,0,0.7,0,1.1,0c18.3,0,80.1,5.1,109.2,70.4c9.8,21.8,7.4,59.9,5.4,90.4
	l-0.2,1.5c-0.2,4.1-0.5,8-0.7,12c1,0.8,4.6,3.8,12,3.9c6.4-0.2,13.4-2.3,21.4-5.9c2.5-1.1,5.1-1.5,7-1.5c2.8,0,5.6,0.7,8,1.5h0.2
	c6.7,2.5,11.1,7.2,11.1,12.1c0.2,4.6-3.4,11.6-20.5,18.5c-1.8,0.7-3.9,1.5-6.4,2.1c-9.5,2.9-23.7,7.5-28.2,17.7
	c-2.5,5.4-1.5,12.3,2.3,20.1c0,0.2,0.2,0.2,0.2,0.2c1.1,2.8,30,68.4,94.3,79.1c2.8,0.5,4.6,2.8,4.6,5.6c0,1-0.2,2-0.7,2.9
	c-3.9,9.2-23.7,16.7-57.3,21.9c-3.1,0.5-4.6,5.6-6.4,13.9c-0.7,3.4-1.5,6.7-2.5,10.3c-1,3.3-3.1,5.1-6.7,5.1h-0.5
	c-2.3,0-5.4-0.3-9.5-1.1c-7.2-1.5-15.1-2.6-25-2.6c-5.9,0-12,0.5-18,1.5c-12.4,2-23.1,9.7-34.4,17.7
	C460.5,802,442.6,814.6,416.1,814.6"/>
<path fill="#020202" d="M417.6,399c17.2,0,76.5,4.6,104.5,67.3c9.2,20.6,6.7,58,5.1,87.9c-0.2,4.7-0.7,9.3-0.8,13.8l-0.2,2l1.3,1.5
	c0.5,0.7,5.2,5.6,15.9,5.9h0.2h0.2c7-0.2,15.1-2.5,23.6-6.4c1.3-0.7,2.9-0.8,4.7-0.8c2,0,4.1,0.3,5.9,1.1l0.2,0.2
	c4.6,1.5,7.7,4.6,7.7,7.2c0,1.5-1.1,7-17.2,13.3c-1.5,0.7-3.6,1.3-5.9,2c-10.3,3.3-26,8.3-31.4,20.6c-2.9,7-2.1,15.4,2.5,24.6
	c2,4.4,31.6,71.2,98.2,82.2c0,0.3-0.2,0.7-0.2,1.1c-1.1,2.6-8.3,12-53,18.8c-7,1.1-8.7,9-10.6,18c-0.7,3.3-1.5,6.5-2.5,10
	c-0.3,1.1-0.3,1.1-1.5,1.1c-0.2,0-0.3,0-0.5,0c-2,0-5.1-0.3-8.5-1.1c-6.4-1.1-15.1-2.8-26.2-2.8c-6.2,0-12.6,0.7-19,1.6
	c-13.8,2.3-24.9,10.2-36.7,18.5c-15.9,10.8-32.3,22.4-57.3,22.4c-1.1,0-2.1,0-3.3-0.2h-0.2h-0.2c-0.7,0-1.1,0.2-2,0.2
	c-25,0-41.4-11.6-57.3-22.8c-11.8-8.3-22.9-16.2-36.7-18.5c-6.4-1.1-12.9-1.6-19-1.6c-11.1,0-19.8,1.6-26.2,2.9
	c-3.4,0.7-6.5,1.3-8.5,1.3c-1.6,0-1.6-0.2-2-1.3c-1-3.4-1.8-6.7-2.5-10c-2-9.2-3.8-17-10.6-18c-44.7-6.9-52.1-16.2-53-18.8
	c-0.2-0.5-0.2-0.8-0.2-1.1c66.8-11,96.4-77.8,98.2-82.2c4.6-9.3,5.4-17.7,2.5-24.6c-5.2-12.4-21-17.5-31.4-20.6
	c-2.5-0.7-4.4-1.5-5.9-2c-13.4-5.4-17.7-10.6-17-13.9c0.7-3.8,7.2-7.7,12.9-7.7c1.3,0,2.5,0.2,3.3,0.7c9.2,4.3,17.7,6.5,25,6.5
	c11.6,0,16.7-5.4,17.4-6.1l1.3-1.5l-0.2-2c-0.2-4.4-0.5-9-0.8-13.8c-2-30-4.3-67.3,5.1-87.9c27.8-62.4,86.8-67.1,104.1-67.1
	c0.5,0,8-0.2,8-0.2C416.9,399,417.2,399,417.6,399 M417.6,388.3L417.6,388.3c-0.3,0-0.8,0-1.1,0c-2.8,0-7.5,0.2-7.9,0.2
	c-10.3,0-30.6,1.5-52.6,11.1c-12.4,5.4-23.7,12.9-33.4,22.3c-11.6,11-21,24.6-28,40.3c-10.3,22.9-7.9,61.7-5.9,93l0,0
	c0.2,3.3,0.5,6.7,0.7,10.3c-1.5,0.7-3.9,1.5-7.5,1.5c-5.9,0-12.6-2-20.5-5.4c-2.3-1.1-4.9-1.5-7.7-1.5c-4.6,0-9.5,1.3-13.8,3.8
	c-5.4,3.1-8.8,7.5-9.8,12.4c-0.7,3.3-0.7,9.7,6.5,16.2c3.9,3.6,9.7,6.9,17.2,9.8c2,0.7,4.3,1.5,6.7,2.3c8.5,2.8,21.4,6.7,24.7,14.6
	c1.6,4.1,1,9.3-2.1,15.6c-0.2,0.2-0.2,0.3-0.2,0.5c-0.8,1.8-8,18.5-23.1,36c-8.5,9.8-18,18.2-27.8,24.7
	c-12.1,7.9-25.4,12.9-39.1,15.4c-5.4,0.8-9.3,5.7-9,11.1c0.2,1.5,0.5,3.3,1.1,4.6l0,0c2.1,5.1,7.2,9.5,15.6,13.3
	c10.2,4.6,25.2,8.7,44.9,11.8c1,2,2,6.7,2.8,9.8c0.7,3.4,1.5,7,2.6,10.8c1.1,4.1,4.3,9,12.3,9c2.9,0,6.5-0.7,10.6-1.5
	c5.9-1.1,14.1-2.8,24.1-2.8c5.6,0,11.5,0.5,17.2,1.5c11.3,2,21,8.7,32.1,16.7c16.4,11.6,35,24.7,63.4,24.7c0.8,0,1.5,0,2.3-0.2
	c1,0,2.1,0.2,3.3,0.2c28.5,0,47-13.1,63.4-24.7l0,0c11.1-8,21-14.7,32.1-16.7c5.9-1,11.6-1.5,17.2-1.5c9.7,0,17.2,1.1,24.1,2.6
	c4.4,0.8,7.9,1.3,10.6,1.3h0.2h0.2c5.9,0,10.2-3.3,11.8-8.8c1.1-3.8,2-7.2,2.6-10.6c0.7-3.1,1.8-8,2.8-9.8
	c19.8-3.1,34.7-7,44.9-11.6c8.2-3.8,13.3-8.2,15.6-13.3c0.7-1.5,1.1-3.1,1.1-4.7c0.3-5.4-3.6-10.3-9-11.1
	c-61.4-10.2-89.1-73.2-90.2-76c-0.2-0.2-0.2-0.3-0.2-0.5c-3.1-6.4-3.8-11.6-2.1-15.6c3.3-7.9,16.2-12,24.7-14.6
	c2.5-0.8,4.7-1.5,6.7-2.3c8.3-3.3,14.4-6.9,18.3-11c4.7-4.9,5.6-9.5,5.6-12.6c-0.2-7.4-5.9-13.9-14.7-17.2c-2.9-1.3-6.4-2-10-2
	c-2.5,0-5.9,0.3-9.3,2c-7.2,3.3-13.6,5.2-19.2,5.4c-2.9-0.2-5.1-0.8-6.4-1.5c0.2-2.8,0.3-5.9,0.7-9l0.2-1.3c2-31.1,4.4-69.9-5.9-93
	c-7-15.9-16.5-29.5-28.2-40.3c-9.8-9.2-21.1-16.7-33.6-22.3C448.3,389.6,427.9,388.3,417.6,388.3"/>
</svg>
